<?xml version="1.0" encoding="utf-8"?>
<!-- Generator: Adobe Illustrator 21.1.0, SVG Export Plug-In . SVG Version: 6.00 Build 0)  -->
<svg version="1.1" id="Calque_1" xmlns="http://www.w3.org/2000/svg" xmlns:xlink="http://www.w3.org/1999/xlink" x="0px" y="0px"
	 viewBox="0 0 432 432" style="enable-background:new 0 0 432 432;" xml:space="preserve">
<style type="text/css">
	.st0{fill:#020203;}
	.st1{fill:#E52629;}
	.st2{fill:#676767;}
	.st3{fill:#B4B4B4;}
	.st4{fill:#9A9999;}
	.st5{fill:#343434;}
	.st6{fill:#4E4D4D;}
	.st7{fill:#1B1B1B;}
	.st8{fill:#CDCCCC;}
	.st9{fill:#FFFFFF;}
	.st10{fill:#1B68B2;}
	.st11{fill:#FCC923;}
	.st12{fill:#C1292E;}
	.st13{fill:#754D24;}
	.st14{fill:#603914;}
	.st15{fill:#412413;}
	.st16{fill:#8C633A;}
	.st17{fill:#E7E6E6;}
	.st18{fill:#C29934;}
	.st19{fill:#9F1E29;}
	.st20{fill:#066938;}
	.st21{fill:#C49253;}
	.st22{fill:#1D71B8;}
	.st23{fill:#36A9E1;}
	.st24{fill:#00A19A;}
	.st25{fill:#53B9EA;}
	.st26{fill:#49B8B2;}
	.st27{fill:#75A5BD;}
	.st28{fill:#82171C;}
	.st29{fill:#571419;}
</style>
<g>
	<g>
		<path class="st14" d="M339.5,302.9c2.1,1,8.2-0.2,14.9-3.8c-6.3-5.3-15.2-7.9-21.4-8.7C334.7,297.1,337.6,301.9,339.5,302.9z"/>
		<path class="st14" d="M370.3,236.9c-2.1-1-8.2,0.1-15,3.7c4.7,4.4,13.1,10.3,21.9,11.5C375.7,244,372.6,237.9,370.3,236.9z"/>
		<path class="st14" d="M378,259c-9.8-1.9-23.2-8-28.9-14.5c-5.1,3.9-10.1,9.2-13.4,16.3c0,0,0,0.1,0,0.1c0,0,0,0,0,0.1c0,0,0,0,0,0
			c-3.5,7.6-4.3,15.2-3.8,22c8.5,0.4,20.9,6.3,28.6,12.4c5.4-3.9,10.5-9.4,13.8-16.3c0,0,0,0,0,0c0,0,0-0.1,0-0.1l0-0.1c0,0,0,0,0,0
			C377.3,272.2,378.2,265.3,378,259z M350.4,257.3c0.4,0.5,0.9,1,1.4,1.5c-0.7-0.2-1.3-0.6-1.9-1c-0.4-0.3-0.8-0.7-1.2-1.1
			c-0.4,0.6-0.8,1.2-1.2,1.9c-0.4,0.7-0.8,1.4-1.2,2.1c0.3,0.3,0.7,0.5,1,0.8c0.5,0.4,1,0.9,1.6,1.4c-0.7-0.2-1.3-0.5-2-0.8
			c-0.4-0.2-0.7-0.4-1-0.6c-0.6,1.2-1.3,2.4-1.9,3.7c0.4,0.2,0.8,0.4,1.2,0.7c0.6,0.4,1.2,0.7,1.7,1.2c-0.7-0.1-1.4-0.3-2-0.6
			c-0.4-0.2-0.8-0.3-1.3-0.5c-0.6,1.2-1.1,2.5-1.6,3.8c0.4,0.1,0.8,0.2,1.1,0.4c0.6,0.3,1.3,0.6,1.9,1c-0.7-0.1-1.4-0.2-2-0.3
			c-0.4-0.1-0.9-0.2-1.3-0.3c-0.3,0.7-0.5,1.3-0.7,2c-0.3,0.8-0.5,1.5-0.8,2.3c0.5,0,1.1,0.1,1.6,0.2c0.7,0.2,1.4,0.4,2,0.8
			c-0.7-0.1-1.4-0.1-2.1-0.1c-0.6,0-1.2,0-1.8,0c-0.4,1.4-0.8,2.8-1.1,4.3c0-0.7-0.1-1.3-0.1-2l0-1l0-0.5c0-0.2,0-0.3,0.1-0.5
			c0-0.1,0-0.2,0-0.3l-1.2,0c-0.7,0-1.4,0-2.1-0.1c0.7-0.3,1.3-0.5,2-0.6c0.4-0.1,0.9-0.1,1.3-0.2c0.1-0.9,0.3-1.9,0.5-2.8
			c0.2-0.6,0.3-1.3,0.5-1.9c-0.3-0.1-0.6-0.2-1-0.3c-0.7-0.2-1.3-0.4-2-0.7c0.7-0.1,1.4,0,2.1,0c0.4,0,0.7,0.1,1.1,0.2
			c0.5-1.4,1-2.9,1.6-4.2c-0.2-0.1-0.5-0.3-0.7-0.4c-0.6-0.4-1.2-0.7-1.7-1.2c0.7,0.1,1.4,0.3,2,0.6c0.3,0.1,0.5,0.2,0.7,0.3
			c0.7-1.4,1.4-2.7,2.2-4c-0.3-0.2-0.5-0.5-0.8-0.7c-0.5-0.5-1-1-1.4-1.6c0.6,0.3,1.2,0.7,1.8,1c0.3,0.2,0.5,0.4,0.8,0.6
			c0.4-0.7,0.9-1.3,1.4-1.9c0.5-0.7,1.1-1.4,1.7-2c-0.3-0.4-0.5-0.7-0.7-1.1c-0.3-0.6-0.6-1.3-0.8-1.9c0.5,0.5,1,1,1.4,1.5l0.8,0.9
			c0.1-0.1,0.2-0.3,0.4-0.4c0.1-0.1,0.2-0.2,0.4-0.4l0.4-0.3l0.8-0.6c0.2-0.2,0.5-0.4,0.8-0.6c0.3-0.2,0.5-0.4,0.8-0.6
			c-1,1.2-1.9,2.4-2.8,3.7C349.7,256.4,350,256.8,350.4,257.3z"/>
	</g>
	<g>
		<path d="M208.3,160.1c-6.1,0-12.1,0-18.2,0c0,0.4-0.1,0.7-0.1,1.1c0,5.9,0.1,11.9,0.1,17.8c0,8.4,0,16.9-0.2,25.3
			c-0.1,5.2-0.6,10.4-0.9,15.6c-0.1,1.8-0.7,3.6-1.4,5.2c-0.7,1.7-2,2.6-3.8,2.6c-1.8,0-3.1-1-3.9-2.6c-1.1-2.2-1.6-4.5-1.8-6.9
			c-0.5-8-0.6-16-0.6-24c-0.1-9.9-0.2-19.7-0.2-29.6c0-4.7,0.1-9.5,0.2-14.2c0.1-8.3,0.2-16.7,0.4-25c0.1-3.5,0.3-7,0.5-10.6
			c0.1-2.3,0.3-4.6,0.5-6.9c0.2-1.7,0.5-3.3,0.9-4.9c0.2-0.9,0.7-1.9,1.3-2.6c2.1-2.7,5.9-2.4,7.5,0.6c0.6,1.1,0.8,2.2,1,3.4
			c0.4,3,0.3,6,0.2,9c-0.2,8.6-0.5,17.2-0.6,25.7c0,4.4,0.3,8.8,0.5,13.2c0,0.9,0.1,1.9,0.1,2.8c3.1,0,6.1-0.1,9.2,0
			c3.1,0.1,6.1,0.3,9.3,0.5c0-0.5,0-0.9,0-1.3c0-6.9-0.2-13.9-0.1-20.8c0-6.5,0.2-13,0.4-19.5c0.1-3.1,0.4-6.2,0.6-9.4
			c0.1-1.5,0.4-3,1.1-4.3c0.5-1,1.2-1.8,2.3-2.2c1.7-0.6,3.5,0,4.5,1.7c0.8,1.3,1.2,2.7,1.4,4.2c0.7,5.2,0.8,10.4,0.7,15.7
			c-0.2,9.2-0.4,18.4-0.2,27.6c0.3,11.9,0.5,23.8,0.7,35.7c0.1,5.9,0,11.9,0,17.8c-0.1,4.9-0.2,9.9-0.3,14.8c-0.1,2-0.2,4.1-0.4,6.1
			c-0.2,2.1-1.3,3.6-3.2,4.5c-0.8,0.4-1.6,0.4-2.5,0.1c-1.9-0.8-3-2.1-3.4-4.1c-0.3-1.3-0.5-2.6-0.6-4c-0.2-3.2-0.5-6.4-0.5-9.6
			c-0.1-8.4-0.2-16.7-0.2-25.1c-0.1-7.6-0.1-15.2-0.2-22.8C208.3,160.5,208.3,160.3,208.3,160.1z"/>
		<path d="M96.1,172.2c-0.5,0-0.9,0-1.3,0c-3.2,0.4-6.3-0.1-9.4-0.8c-1.3-0.3-2-0.9-2.1-1.9c0-1,0.6-1.9,2-2.1
			c1.6-0.3,3.2-0.5,4.8-0.6c2.8-0.2,5.5-0.3,8.3-0.5c0.5,0,1-0.1,1.5-0.2c2.6-0.5,4.4,0.7,4.9,3.3c0.2,0.9,0.2,1.7,0.2,2.6
			c0,4.3,0,8.7-0.1,13c-0.1,6.6-0.3,13.2-0.4,19.8c-0.1,2.9-0.2,5.9-0.1,8.8c0,2.5,0.3,5,0.4,7.5c0,0.4,0.1,0.7,0.3,1.1
			c0.4,1.1,0.2,2-0.6,2.7c-0.8,0.7-2,0.7-3,0.2c-0.8-0.5-1.2-1.2-1.4-2c-0.4-1.5-0.7-3-0.9-4.5c-0.3-1.8-0.4-3.7-0.6-5.7
			c-0.2,0.3-0.3,0.5-0.4,0.7c-0.8,1.6-1.5,3.2-2.3,4.8c-3.4,6.3-10.8,9.9-18.9,7.4c-3.5-1.1-6.4-2.9-8.9-5.5
			c-3.1-3.1-5.4-6.8-7.1-10.9c-2.4-5.8-4-11.8-5-17.9c-0.9-5.5-1.5-11-1.6-16.5c-0.1-4.5-0.3-9-0.1-13.5c0.4-10.5,1.5-21,4.1-31.2
			c1.1-4.3,2.5-8.5,4.4-12.5c2.4-5.1,5.7-9.5,10.1-13c3-2.4,6.2-4,9.9-4.8c4.9-0.9,9.2,0.4,12.7,3.8c2.6,2.5,4.2,5.5,5.1,9
			c1,3.6,1.7,7.3,2,11c0.1,2,0,3.9-0.5,5.8c-0.1,0.4-0.2,0.8-0.4,1.1c-0.4,0.8-1.1,1.2-1.9,1c-0.8-0.2-1.3-0.8-1.4-1.6
			c-0.1-0.6,0-1.2,0-1.9c0-3.6-0.5-7.1-1.7-10.5c-0.9-2.4-2-4.6-3.4-6.7c-0.7-1-1.5-2-2.4-2.8c-2.4-2.3-5.3-2.6-8.3-1.3
			c-2.7,1.2-5,3-6.8,5.4c-2.8,3.8-4.6,8-5.6,12.6c-0.9,4.7-1.8,9.4-2.4,14.2c-0.7,5.1-1.2,10.3-1.7,15.5c-0.6,7.1-0.6,14.2-0.2,21.3
			c0.4,5.6,1,11.1,2,16.6c1,5,2.4,9.8,4.6,14.4c1.3,2.7,2.8,5.2,5,7.2c1.3,1.2,2.9,2.1,4.6,2.6c2.8,0.8,5.1,0.1,6.9-2.2
			c1.4-1.8,2.4-3.8,3.2-5.9c1.2-3.2,1.9-6.6,2.3-10c1.1-8.5,1.4-17.1,1.5-25.7C96.1,172.7,96.1,172.4,96.1,172.2z"/>
		<path d="M300.5,165.5c0,1.4-0.1,2.7-0.1,4.1c-0.2,11.6-0.4,23.1-0.6,34.7c-0.1,4.3,0,8.5,0.1,12.8c0,1.2,0.1,2.4,0.3,3.6
			c0.3,1.9,0,3.9-0.3,5.8c-0.4,2.4-2.3,3.9-4.6,3.9c-1.9-0.1-3.5-1.3-4.1-3.4c-0.5-1.9-0.9-3.8-1-5.8c-0.1-3-0.4-6-0.6-8.9
			c-0.6-9.3-0.7-18.5-0.7-27.8c0-6,0-12,0.1-18c0.1-4.3,0.3-8.6,0.5-12.9c0.3-5.1,0.7-10.2,0.9-15.4c0.1-2,0.1-4.1,0.1-6.1
			c0-1.8,0.1-3.6,0-5.5c-0.1-2.9-0.1-5.7-0.3-8.6c-0.2-4.9-0.3-9.8,0.1-14.7c0.1-1.8,0.6-3.5,1.4-5.1c0.7-1.3,1.7-2.1,3.3-2.2
			c0.6,0,1.2-0.1,1.7-0.3c7.9-2.1,15.4,2,19.3,7.7c2.9,4.1,4.6,8.7,5.5,13.7c0.8,4.1,1.1,8.2,1.3,12.4c0.1,2.3,0.2,4.7,0.1,7
			c-0.1,4.7-0.9,9.3-2.6,13.6c-2.1,5.5-5.8,9.5-10.9,12.3c-0.3,0.1-0.5,0.3-0.8,0.5c0.1,0.1,0.2,0.3,0.3,0.3
			c2.6,2.2,4.1,5.1,5.1,8.2c1.1,3.5,1.8,7.1,2.2,10.7c0.8,7.7,1.5,15.3,2.3,23c0.5,5.4,1.1,10.9,2.1,16.2c0.2,1.1,0.6,2.3,0.9,3.4
			c0.2,0.5,0.5,0.9,0.7,1.3c0.2,0.4,0.5,0.7,0.7,1.1c0.4,0.7,0.4,1.3-0.1,2c-0.5,0.7-1.1,0.9-1.9,0.8c-0.2,0-0.5-0.1-0.7-0.3
			c-1.6-1.1-3.2-2.2-4.1-4.1c-1.1-2.2-1.9-4.6-2.3-7c-0.6-3.6-1.1-7.1-1.5-10.7c-0.8-7.3-1.3-14.6-2-21.8c-0.3-3.5-0.7-6.9-1.3-10.4
			c-0.3-1.7-0.9-3.4-1.6-5.1c-1.1-2.4-3-4.1-5.5-5.1C301.4,165.1,301.4,165.2,300.5,165.5z M299.7,100.1c0.9,3.2,1.1,6.3,1.3,9.4
			c0.2,4.7,0.4,9.4,0.4,14.2c0.2,11.7-0.3,23.3-0.7,35c0,0.3,0,0.7,0,1.2c1.4-0.5,2.6-0.9,3.8-1.4c4.7-2,8.3-5.2,10.3-10
			c1.2-2.8,1.8-5.7,2.1-8.7c0.3-4,0.1-8-0.3-12c-0.3-3.8-0.9-7.6-1.9-11.3c-1-3.7-2.5-7.2-4.8-10.3c-2-2.7-4.7-4.6-7.9-5.7
			C301.3,100.3,300.5,100.2,299.7,100.1z"/>
		<path d="M378,170.2c0.2,11.3-1.8,22.2-5.9,32.7c-1.7,4.3-3.3,8.5-5.6,12.5c-2.3,4-4.9,7.6-8.5,10.5c-3.7,2.9-7.7,5-12.4,5.5
			c-2.5,0.3-5.1,0.2-7.6-0.2c-2.2-0.3-3.1-1.4-3.6-3.6c-0.6-2.9-0.9-5.7-0.8-8.7c0.1-5.8,0.1-11.6,0.2-17.4c0-2.6,0-5.2,0-7.7
			c0-9.3,0-18.6,0.1-27.8c0-4.7,0.1-9.5,0.2-14.2c0.2-6,0.5-12,0.8-18c0.2-3.7,0.4-7.5,0.5-11.2c0.2-6.3,0.2-12.6,0.4-18.9
			c0-1.8,0.3-3.6,0.5-5.4c0.1-0.7,0.4-1.4,0.7-2.1c0.6-1.3,1.7-2,3.1-2.3c4.6-1.1,8.5,0.6,12.4,2.5c1.1,0.6,2.1,1.3,3.2,1.9
			c2.3,1.4,4.2,3.3,5.8,5.4c3.2,4.3,5.5,9,7.3,13.9c3.4,9,5.7,18.3,7.3,27.8C377.2,153.8,377.8,161.9,378,170.2z M343.5,226.1
			c0.4,0,0.6,0,0.8,0c3.1-0.7,6-1.9,8.3-4.1c1.6-1.5,3-3.1,4.3-4.9c3.9-5.2,6.8-10.9,8.8-17.1c2.3-6.7,3.7-13.6,4.3-20.7
			c0.3-3.5,0.3-7.1,0.4-10.7c0-2.6,0-5.2-0.1-7.7c-0.4-6.6-1.2-13.2-2.4-19.7c-1.7-9.1-4.2-18.1-7.9-26.6
			c-2.4-5.5-5.8-10.3-11.2-13.4c-1.1-0.6-2.3-1.2-3.5-1.8c-0.1-0.1-0.3-0.1-0.5-0.1c0,0.4,0,0.8,0.1,1.1c0,0.9,0.1,1.9,0.1,2.8
			c-0.1,4.2-0.1,8.4-0.2,12.7c-0.2,7.3-0.4,14.5-0.6,21.8c-0.2,8.8-0.3,17.5-0.5,26.3c-0.2,10.2-0.5,20.4-0.6,30.7
			c0,6.8-0.5,13.7,0,20.5c0.2,3,0.3,6,0.4,8.9C343.5,224.9,343.5,225.4,343.5,226.1z"/>
		<path d="M152.6,147.3c-0.2,5.6-0.4,11-0.6,16.4c-0.2,5-0.5,10.1-0.8,15.1c-0.2,4.5-0.3,8.9-0.5,13.4c-0.3,5-0.6,10-1.9,14.9
			c-1.4,5-3.8,9.4-7.3,13.2c-1.3,1.4-2.6,2.6-4.3,3.5c-4.4,2.2-8.6,1.8-12.5-1.2c-1.8-1.4-3.3-3.2-4.6-5.1
			c-2.9-4.5-4.8-9.4-6.3-14.5c-1.4-4.8-2.1-9.8-2.5-14.8c-0.5-5.7-0.7-11.3-0.6-17c0.2-5.7,0.5-11.4,0.8-17.1
			c0.3-5.3,0.9-10.7,1.6-15.9c1.1-8.6,3.1-16.9,6.7-24.8c1.6-3.4,3.4-6.6,5.8-9.4c1-1.2,2.2-2.4,3.4-3.3c2.2-1.6,4.6-2.1,7.3-1.7
			c3.5,0.5,6,2.4,7.8,5.3c2.6,4.3,4.5,8.9,5.6,13.9c1.3,5.9,2.2,11.8,2.4,17.8C152.5,139.8,152.5,143.7,152.6,147.3z M145.8,160.9
			c0,0-0.1,0-0.1,0c0.1-2.8,0.2-5.7,0.3-8.5c0.2-5.6-0.2-11.1-0.5-16.7c-0.2-3.6-0.3-7.1-0.8-10.7c-0.4-2.7-0.7-5.3-1.2-8
			c-0.7-3.7-2.4-7.1-4.1-10.4c-0.3-0.5-0.7-0.9-1.1-1.3c-1-0.8-2.3-0.8-3.2,0.1c-0.8,0.8-1.6,1.7-2.3,2.7c-2.7,3.7-4.4,7.9-5.9,12.2
			c-0.5,1.5-1,3-1.3,4.5c-1.8,10.2-3.1,20.4-3.5,30.8c-0.2,5.7-0.2,11.5-0.3,17.2c-0.1,6,0.1,11.9,0.9,17.9
			c0.7,5.2,1.9,10.3,3.9,15.1c0.7,1.7,1.7,2.9,3.1,4c1.5,1.1,3.1,1.9,5,1.5c1.9-0.3,3.7-1.2,4.9-2.8c1.2-1.5,2.2-3.2,3.2-4.8
			c0.5-0.8,0.8-1.7,0.9-2.5c0.4-2.9,0.8-5.8,1-8.7c0.3-5,0.5-10,0.7-14.9C145.5,172.1,145.6,166.5,145.8,160.9z"/>
		<path d="M268.6,163.8c-3.1,0.1-6,0.4-8.9,0.4c-2.9,0-5.9-0.3-9-0.5c-0.1,0.2-0.2,0.6-0.3,1c-3.9,17.6-8,35.2-12.9,52.5
			c-0.7,2.5-1.7,4.9-2.6,7.3c-0.4,1-0.8,2-1.2,2.9c-0.3,0.6-0.6,1.2-1,1.7c-1.1,1.2-2.5,1.5-4,1c-1.5-0.5-2.3-1.6-2.5-3.1
			c-0.1-0.6,0-1.3,0.1-1.9c0.7-5.4,2.4-10.6,3.6-15.8c2.1-9,4-18,6.1-27c3.1-13.7,6.2-27.3,9.8-40.8c2.5-9.6,5-19.2,7.6-28.8
			c1-3.9,2.6-7.6,4.2-11.3c0.4-0.9,0.9-1.7,1.4-2.5c0.5-0.7,1.1-1.2,1.9-1.4c1.7-0.4,3.2,0.4,3.8,2.1c0.6,2,1.1,4,1.5,6
			c1.4,6.3,2.5,12.6,3.5,19c0.8,5.3,1.5,10.6,2.3,15.9c0.8,5.8,1.6,11.6,2.3,17.4c0.7,5.6,1.4,11.3,2.1,16.9
			c0.6,4.6,1.1,9.2,1.6,13.8c0.7,5.4,1.3,10.9,2.1,16.3c0.8,5.9,1.8,11.9,2.7,17.8c0.3,1.7,0.4,3.5,0.6,5.2c0,0.2,0,0.4,0,0.7
			c0,0.9-0.4,1.6-1.3,1.9c-0.8,0.3-1.8,0.1-2.3-0.7c-0.3-0.4-0.6-0.9-0.7-1.5c-2.1-7-3.3-14.1-4.4-21.3c-0.7-4.4-1.6-8.7-2.2-13.1
			c-0.8-5.1-1.5-10.2-2.1-15.3c-0.5-4.4-0.9-8.8-1.3-13.2C268.8,164.6,268.7,164.2,268.6,163.8z M268,157.6c0-0.5,0-0.9-0.1-1.3
			c-0.2-1.6-0.4-3.3-0.6-4.9c-0.5-3.9-0.9-7.9-1.5-11.8c-0.4-3.4-0.9-6.8-1.4-10.1c-0.7-4.7-1.4-9.3-2.2-14c0-0.2-0.1-0.4-0.3-0.8
			c-3.5,14.5-6.8,28.7-10,43.1c0.4,0,0.7,0,0.9-0.1c2-0.2,4-0.5,6.1-0.7c2.2-0.2,4.4-0.3,6.5,0.1C266.2,157.2,267,157.4,268,157.6z"
			/>
	</g>
	<g>
		<path d="M257.8,264.6c-0.4,0.3-0.9,0.5-1.3,0.8c-1.9,1.4-3.9,2.8-5.8,4.2c-0.4,0.3-0.5,0.7-0.6,1.2c-0.5,2.5-1,4.9-1.5,7.4
			c-0.7,3.5-1.3,7.1-1.9,10.6c-0.2,0.9-0.3,1.9-0.5,2.8c-0.2,1.2-0.8,2.2-1.7,3c-1.3,1.3-3.3,1-4.3-0.6c-0.7-1.1-1-2.3-0.9-3.6
			c0.2-2.5,0.4-5,0.8-7.5c0.5-3.8,1.1-7.5,1.8-11.3c0.3-1.8,0.8-3.5,1.3-5.3c0.1-0.2,0.1-0.4,0.2-0.8c-1.6,0.4-3.2,0.9-4.8,1.3
			c0,0.4,0,0.8,0.1,1.1c0.3,2.6,0,5.2-0.6,7.7c-1.1,4.5-3,8.7-6,12.2c-1.8,2.1-4,3.9-6.5,5c-2,0.9-4.2,1-6.3,0.4
			c-2.5-0.7-4.5-2.1-5.9-4.4c-0.1-0.2-0.2-0.3-0.3-0.4c0,0,0,0-0.1-0.1c-1,0.9-2.1,1.8-3.1,2.6c-0.7,0.6-1.4,1.3-2.2,1.8
			c-0.6,0.4-1.2,0.8-1.8,1.1c-2.4,1-4.7,0.3-6.1-1.9c-0.8-1.3-1.2-2.7-1.3-4.1c-0.2-2.9,0.1-5.7,0.8-8.5c0.8-3.1,1.6-6.1,2.7-9.1
			c0.2-0.5,0.5-1.1,0.4-1.8c-0.5,0.2-1,0.3-1.4,0.5c-1.5,0.8-2.8,1.9-4,3.2c-0.2,0.2-0.3,0.6-0.4,1c-1,4.5-2,9.1-3,13.6
			c-0.3,1.3-0.7,2.5-1.5,3.6c-0.2,0.3-0.3,0.6-0.4,0.9c-0.3,0.5-0.5,1-0.9,1.4c-0.9,1-2,1.4-3.3,1.1c-1.3-0.3-2.2-1.2-2.5-2.5
			c0-0.2-0.1-0.3-0.1-0.5c-0.1-2-0.3-3.9,0-6c0.8-5.1,1.7-10.2,2.8-15.2c0-0.2,0.1-0.3,0.1-0.6c-0.4,0-0.7,0-1.1,0
			c-1.7,0.1-3.3-0.2-4.7-1.2c-0.5-0.3-0.9-0.8-1.2-1.3c-0.4-0.6-0.3-1.3,0.2-1.7c0.4-0.4,1.1-0.5,1.7-0.1c0.8,0.5,1.6,0.7,2.5,0.8
			c0.4,0,0.9,0,1.3,0c0.7-0.1,1.4-0.2,2.1-0.4c0.2-0.6,0.3-1.2,0.5-1.8c1.2-4.1,2.5-8.2,4.3-12.1c1-2.2,2.2-4.2,3.6-6.2
			c1.3-1.9,2.6-3.7,4-5.5c0.7-1,1.5-1.8,2.6-2.5c2.1-1.3,4.1-0.8,5.3,1.4c1.1,2,1.2,4.2,0.9,6.3c-0.2,1.4-0.6,2.7-1.1,4
			c-2.2,5.6-5.4,10.4-9.9,14.4c-0.2,0.2-0.4,0.4-0.5,0.6c-0.3,1.4-0.5,2.8-0.8,4.4c0.4-0.2,0.6-0.4,0.9-0.6c1.3-0.9,2.6-1.6,4-2.1
			c1.5-0.5,2.7-0.2,3.9,0.7c0.8,0.7,1.4,1.6,1.8,2.5c0.7,1.8,1,3.7,0.8,5.7c-0.4,4.3-1.2,8.6-2.4,12.8c-0.1,0.4-0.2,0.7-0.3,1.2
			c0.3-0.1,0.5-0.1,0.7-0.2c1.7-0.8,3.1-1.8,4.6-2.9c0.3-0.2,0.4-0.4,0.4-0.8c-0.7-3.8,0.1-7.3,1.3-10.9c1.3-3.6,3.3-6.8,5.9-9.6
			c2-2.2,4.4-3.8,7.4-4.4c1.2-0.2,2.4-0.4,3.6-0.2c0.3,0,0.6,0,0.8-0.1c1.8-0.8,3.4-0.6,4.8,0.7c0.8,0.7,1.5,1.6,1.9,2.7
			c0.1,0.3,0.3,0.6,0.4,1c0.9-0.2,1.8-0.3,2.7-0.5c0.8-0.2,1.6-0.4,2.4-0.5c1-0.2,1.6-0.6,2-1.6c0.5-1.3,1.3-2.5,2-3.8
			c0.3-0.5,0.7-0.9,1.1-1.3c1.3-1.1,2.9-0.7,3.5,0.9c0.5,1.3,0.4,2.7,0.2,4.1c-0.1,1.1-0.4,2.2-0.6,3.3c0,0.2,0,0.3-0.1,0.7
			c0.3-0.2,0.5-0.3,0.7-0.5c2.1-1.5,4.2-3,6.4-4.5c0.6-0.4,1.3-0.8,2.1-0.9c1.5-0.1,2.7,0.5,3.6,1.7c0.9,1.2,1.3,2.5,1.5,4
			c0,0.3,0.1,0.6,0.1,1c0.3-0.2,0.5-0.3,0.7-0.5c1.9-1.6,3.9-3.3,5.8-4.9c0.8-0.7,1.6-1.3,2.4-2c1.5-1.2,3.4-1.1,4.8,0.3
			c0.7,0.7,1.1,1.6,1.3,2.5c0.5,1.7,0.5,3.4,0.3,5.1c-0.5,4.5-1.4,8.9-2.5,13.3c-0.6,2.7-1.3,5.4-2,8.2c0,0.2-0.1,0.3-0.1,0.5
			c1-0.2,5.2-3.2,6.5-4.6c-0.4-3.7,0.3-7.3,1.6-10.8c1.6-4.2,3.6-8.2,6.3-11.8c1-1.3,2.2-2.5,3.4-3.7c1.1-1.1,2.4-2.1,3.8-2.7
			c0.9-0.4,1.8-0.7,2.7-0.9c4-0.7,6.3,2.4,6.3,5.3c0,0.8-0.1,1.6-0.3,2.4c-1.6,4.7-4.7,7.8-9.6,8.9c-0.3,0.1-0.6,0.1-0.9,0.1
			c-0.3,0-0.5,0.1-0.9,0.1c-0.2,0.5-0.3,0.9-0.5,1.4c-0.9,2.4-1.6,4.8-1.9,7.3c-0.2,1.3-0.3,2.6-0.2,3.9c0.2,1.8,1.6,2.7,3.3,2.3
			c2.4-0.6,4.6-1.7,6.5-3.2c0.9-0.7,1.8-1.4,2.7-2.2c2.4-2.2,4.7-4.5,7-6.8c1.4-1.5,2.7-3.1,4-4.7c0.2-0.2,0.3-0.4,0.5-0.6
			c0.4-0.4,1-0.5,1.5-0.2c0.5,0.3,0.7,0.8,0.5,1.4c-0.1,0.3-0.2,0.5-0.4,0.8c-0.9,1.6-2,3.1-3.2,4.5c-3.6,4.1-7.4,8-11.4,11.7
			c-0.8,0.8-1.6,1.5-2.4,2.3c-1.4,1.3-2.9,2.4-4.6,3.1c-5.1,2.1-9.8-0.1-12.3-4.1c-0.2-0.2-0.3-0.5-0.5-0.8
			c-0.2,0.2-0.5,0.3-0.6,0.5c-2.1,1.9-4.2,3.7-6.1,5.8c-0.5,0.5-1,1-1.6,1.4c-2.3,1.6-5.1,0.9-6.3-1.6c-0.6-1.1-0.8-2.3-0.8-3.5
			c0-2.1,0.1-4.2,0.4-6.2c0.5-2.9,0.8-5.8,1.4-8.7c0.7-3.3,1.5-6.5,2.3-9.7c0-0.2,0.1-0.4,0.2-0.7c-0.3,0.2-0.5,0.3-0.6,0.4
			c-2.1,1.7-4.2,3.3-6.3,5c-0.4,0.3-0.4,0.7-0.5,1.1c-0.4,2.3-0.7,4.6-1.2,6.9c-0.7,3.2-1.6,6.3-2.3,9.5c-0.3,1.3-0.6,2.6-1.2,3.8
			c-0.5,1.1-1.4,2-2.3,2.7c-1.4,1.2-3.4,0.7-4.3-0.9c-1.2-2.1-1.6-4.3-1.3-6.7c0.7-6.7,2.6-13.1,4.5-19.6c0.2-0.6,0.4-1.2,0.5-1.8
			C257.9,264.7,257.8,264.7,257.8,264.6z M229.1,263.9c-0.2,0.2-0.4,0.3-0.6,0.5c-2,1.7-3.5,3.8-4.5,6.2c-1.2,3.2-2.1,6.4-2.3,9.9
			c-0.1,1.4-0.1,2.9,0,4.3c0.1,2.5,2.4,3.8,4.4,3.4c1-0.2,1.8-0.7,2.6-1.3c2.9-2.4,4.9-5.5,6.2-9c0.7-2,1.3-4,1.4-6.1
			c0.1-1.4,0.1-2.8-0.2-4.3C233.1,267.4,230.5,266.8,229.1,263.9z M199.7,257.3c0.1,0.1,0.2,0.2,0.3,0.2c0.1-0.2,0.1-0.3,0.2-0.5
			c1.2-1.6,2.5-3.1,3.6-4.8c1.5-2.2,2.6-4.6,3.4-7.1c0.3-0.9,0.4-1.9,0.3-2.8c-0.1-0.9-0.3-1.8-0.9-2.6c-0.4-0.6-0.9-0.7-1.4-0.2
			c-0.6,0.5-1.1,1-1.5,1.6c-0.9,1.3-1.4,2.7-1.8,4.3c-0.4,1.9-0.8,3.8-1.1,5.7C200.4,253.2,200.1,255.2,199.7,257.3z M297,267.2
			c0.1,0,0.2,0.1,0.2,0.1c0.1,0,0.2,0,0.3,0c2.7-0.9,4.7-2.7,6-5.3c0.2-0.5,0.4-1.1,0.5-1.6c0-0.4,0-0.9-0.2-1.3
			c-0.3-0.7-0.7-0.9-1.3-0.4c-0.4,0.3-0.8,0.7-1.2,1.1C299.4,261.9,298.1,264.5,297,267.2z M234.7,264c-0.4-1.1-1.2-1.6-1.8-1.2
			C233.3,263.5,233.8,263.9,234.7,264z"/>
		<path d="M126.2,291.1c-0.8,0.6-1.5,1.2-2.2,1.7c-4.5,3.1-9.8,1.2-12.1-2.2c-1.3-1.9-2.2-4-2.5-6.3c-0.5-3.7,0.1-7.3,1.2-10.8
			c1-3.2,2.5-6.1,4.7-8.7c2.5-2.8,5.5-4.4,9.3-4.5c1.8-0.1,3.5,0.4,5.1,1.2c0.2,0.1,0.5,0.2,0.8,0.4c0.2-0.8,0.3-1.6,0.6-2.3
			c0.3-0.8,0.6-1.7,1.1-2.4c1.4-2.2,4-2,5.3,0.2c0.7,1.2,0.9,2.5,1,3.9c0.1,2.3-0.1,4.6-0.4,6.9c-0.7,4.7-1.4,9.4-2.1,14
			c-0.4,2.8-0.9,5.5-1.3,8.3c0,0.2,0,0.3-0.1,0.7c1.7-1.3,3.2-2.7,4.7-4.1c-0.1-0.8-0.2-1.5-0.3-2.3c-0.2-2.8,0.2-5.5,1-8.2
			c1.2-3.9,2.7-7.6,5.1-11c1.7-2.4,3.8-4.4,6.5-5.6c1.8-0.8,3.6-1.1,5.6-0.6c0.2,0.1,0.4,0.1,0.6,0.1c1.8,0,3.2,0.8,4.3,2.2
			c0.6,0.7,0.9,1.6,1.4,2.4c0.1,0.2,0.2,0.5,0.3,0.7c0.1,0,0.2,0,0.3,0c2-0.8,4.1-1.5,6.1-2.3c0.7-0.3,1.3-0.7,1.7-1.4
			c0.3-0.6,0.9-0.7,1.4-0.5c0.5,0.2,0.6,0.8,0.4,1.4c-0.3,0.8-0.8,1.4-1.5,1.8c-0.7,0.4-1.4,0.8-2.1,1.1c-1.6,0.7-3.3,1.3-4.9,2
			c-0.3,0.1-0.6,0.3-1,0.4c0.3,2.1,0.1,4.1-0.2,6.1c-0.9,5.4-2.5,10.5-5.3,15.2c-1,1.7-2.1,3.3-3.8,4.5c-2,1.4-4.3,2.2-6.8,2.1
			c-3.2-0.1-5.5-1.7-7.2-4.3c-0.2-0.3-0.4-0.6-0.6-0.9c-2.1,1.8-4.1,3.5-6.1,5.3c-0.2,0.2-0.3,0.5-0.4,0.8c-0.5,3.7-1,7.4-1.4,11.1
			c-0.7,5.7-1.4,11.3-2.2,17c-0.3,2.3-0.7,4.7-1.6,6.9c-0.5,1.2-1,2.3-1.6,3.5c-0.7,1.4-1.9,2.4-3.2,3.1c-2.6,1.4-5.4,1-7.4-1.2
			c-1.6-1.7-2.5-3.7-2.9-6c-0.6-3.4-0.1-6.6,0.6-9.9c0.7-3.1,1.8-6.1,3.2-9c0.5-1.1,1.1-2.1,1.6-3.2c1.5-3.2,3.5-6,5.9-8.6
			c0.3-0.3,0.5-0.6,0.6-1.1c0.3-2.3,0.7-4.6,1-6.9C126.2,291.6,126.2,291.4,126.2,291.1z M122.3,288.2c1,0,1.9-0.2,2.7-0.7
			c0.4-0.3,0.9-0.5,1.3-0.7c0.4-0.2,0.5-0.5,0.6-0.8c0.1-0.9,0.1-1.8,0.3-2.7c0.4-3.3,0.8-6.6,1.2-9.8c0.3-2.4,0.7-4.8,1.1-7.1
			c0.1-0.6-0.1-1.1-0.6-1.5c-1.4-1.1-3-1.6-4.8-1.1c-1.8,0.5-3.2,1.6-4.2,3.2c-1,1.7-1.7,3.5-2.1,5.5c-0.6,2.8-0.6,5.6-0.3,8.4
			c0.2,2.1,0.9,4,1.9,5.8C120.1,287.7,121,288.3,122.3,288.2z M160.6,268.2c-3.1,0-5.6-0.9-6.7-4.2c-0.3,0.5-0.5,0.9-0.7,1.2
			c-1.4,2.4-2.2,5-2.9,7.7c-0.7,2.8-0.9,5.7-1.1,8.7c-0.1,1.6-0.1,3.2,0.2,4.7c0.1,0.6,0.3,1.3,0.5,1.9c0.4,0.8,1,1.2,2,1.2
			c1.2,0,2-0.6,2.7-1.4c1.8-1.9,3.2-4.2,4.1-6.6c1.4-3.7,1.9-7.5,2-11.4C160.7,269.5,160.6,268.9,160.6,268.2z M124.3,305.9
			c-0.2,0.2-0.3,0.3-0.3,0.3c-3,4.4-5.5,9.1-7,14.2c-0.6,2.1-1,4.2-0.9,6.3c0.1,2.1,0.7,4,2.2,5.5c0.3,0.3,0.6,0.5,1,0.8
			c0.3,0.2,0.7,0.2,1-0.1c0.3-0.4,0.7-0.8,1-1.3c0.7-1.1,1-2.3,1.3-3.5c0.6-2.8,0.8-5.7,1-8.5c0.2-3,0.4-6.1,0.5-9.1
			C124.2,309.1,124.3,307.6,124.3,305.9z M159.7,265.2c0.1-0.1,0.1-0.1,0.2-0.2c-0.2-0.7-0.5-1.2-1.1-1.6c-0.3-0.2-0.6-0.3-1-0.3
			c-0.4-0.1-0.7,0.3-0.5,0.7c0.1,0.3,0.3,0.5,0.6,0.6C158.5,264.6,159.1,264.9,159.7,265.2z"/>
		<path d="M91.6,264.8c-0.8,0.2-1.4,0.3-2,0.5c-1.2,0.3-2.4,0.4-3.6,0.3c-0.3,0-0.6,0-0.8,0.3c-1,1.6-2.4,2.9-4,3.9
			c-0.1,0-0.1,0.1-0.1,0.1c0.1,5.4-0.5,10.6-2.3,15.7c-1.1,3.1-2.5,5.9-4.9,8.2c-2.4,2.3-5.2,3.1-8.4,2.8c-2-0.2-3.9-0.7-5.6-1.8
			c-3-1.9-4.7-4.8-5.5-8.2c-0.6-2.7-0.4-5.4,0.2-8.1c0.9-3.9,2.4-7.6,4.8-10.8c2-2.7,4.6-4.7,7.8-5.8c1.9-0.7,3.9-0.9,5.9-0.4
			c0.2,0.1,0.4,0.1,0.6,0.1c2.8,0,4.7,1.4,6,3.7c0.2,0.4,0.4,0.8,0.6,1.2c1.2-0.6,1.9-1.5,2.6-2.4c-0.1-0.2-0.2-0.4-0.4-0.6
			c-0.1-0.2-0.2-0.3-0.2-0.5c-0.5-1.3,0.1-2.6,1.2-3.1c1.2-0.4,2.4,0.2,2.9,1.6c0.1,0.2,0.1,0.4,0.2,0.7c1.5,0.2,2.8,0,4.2-0.5
			c0.8-0.3,1.7-0.6,2.5-0.8c1.5-0.4,2.8,0.2,3.6,1.5c0.7,1.1,0.9,2.4,0.9,3.7c0,2.5-0.4,4.9-1.1,7.2c-1,3.6-2.1,7.1-3.2,10.7
			c-0.7,2.4-1,4.8-1.3,7.3c0,0.1,0,0.2,0,0.3c0.2-0.1,0.5-0.1,0.7-0.2c0.6-0.3,1.2-0.6,1.8-1c1.7-1.3,3.3-2.5,4.9-3.8
			c0.6-0.5,1.1-0.6,1.6-0.2c0.5,0.4,0.7,1,0.3,1.7c-0.3,0.6-0.7,1.1-1.2,1.6c-0.5,0.5-1.1,1-1.6,1.5c-1.5,1.4-3.1,2.7-4.6,4.1
			c-1.3,1.1-2.8,1.6-4.4,1.5c-2.4-0.2-4-1.4-4.9-3.6c-0.7-1.7-0.7-3.4-0.4-5.1c0.4-3.2,1.1-6.3,2-9.4c0.6-2.1,1.2-4.2,1.8-6.4
			c0.7-2.5,1.7-4.8,3.1-7C91.4,265.2,91.5,265.1,91.6,264.8z M70,266.8c-0.6,0.6-1,1-1.4,1.5c-0.7,0.9-1.4,1.8-1.9,2.8
			c-2.3,3.8-3.3,7.9-3.1,12.3c0.1,2,0.7,3.9,2.3,5.2c1.6,1.3,3.6,1.4,5.3,0.3c1.1-0.7,2-1.6,2.7-2.7c0.9-1.3,1.6-2.8,2.1-4.3
			c0.9-2.8,1.4-5.6,1.6-8.5c0-0.6,0.1-1.2,0.1-1.9c-1.8,0.3-3.4,0.1-4.9-0.6C71.3,270,70.4,268.7,70,266.8z M77.3,267.9
			c-0.1-0.7-0.3-1.3-0.8-1.6c-0.9-0.5-1.9-0.8-3-0.7c-0.2,0.7-0.1,1.2,0.5,1.7C75,268,76.1,268.1,77.3,267.9z"/>
	</g>
</g>
</svg>
